<svg id="图层_1" data-name="图层 1" xmlns="http://www.w3.org/2000/svg" viewBox="0 0 56.69 56.69"><defs><style>.cls-1{fill:#72c8df;}</style></defs><title>SVG图标</title><path class="cls-1" d="M33.47,13.49a5.81,5.81,0,1,1-5.91,5.81,5.86,5.86,0,0,1,5.91-5.81Z"/><path class="cls-1" d="M24.21,38.1c.43,0,.85,0,1.26,0a6.3,6.3,0,0,1-.66-2.86,12.38,12.38,0,0,1,.85-4.7,5.29,5.29,0,0,1-1.45.22,5.64,5.64,0,0,1-3.6-1.34c-1.87.8-3.07,2.43-3.07,5.19,0,2.43,3,3.53,6.67,3.53Z"/><path class="cls-1" d="M22.42,27.08A4.66,4.66,0,0,0,25.55,26l.17-.14A4.34,4.34,0,0,0,27,23.64a7.9,7.9,0,0,1-1.11-3.92,4.64,4.64,0,0,0-3.2-1.41,4.39,4.39,0,1,0-.29,8.77Z"/><path class="cls-1" d="M37.14,30.7h1.55v-2l-.18-.09a6.86,6.86,0,0,1-8.82-.09c-2.31,1-3.8,3-3.8,6.42,0,3,3.7,4.38,8.27,4.38a15.45,15.45,0,0,0,4.9-.7,2.51,2.51,0,0,1-.37-1.32v-2H37.14a2.33,2.33,0,0,1,0-4.61Z"/><path class="cls-1" d="M43.48,31.73H41.36V29.11a.69.69,0,1,0-1.36,0v2.62H37.89a.78.78,0,0,0,0,1.55H40v2.61a.69.69,0,1,0,1.36,0V33.28h2.12a.78.78,0,0,0,0-1.55Zm0,0"/></svg>