<svg id="图层_1" data-name="图层 1" xmlns="http://www.w3.org/2000/svg" viewBox="0 0 56.69 56.69"><defs><style>.cls-1{fill:#d3acd0;}</style></defs><title>SVG图标</title><polygon class="cls-1" points="19.77 39.72 25.57 39.72 25.57 32.71 23.99 31.87 19.77 34.57 19.77 39.72"/><polygon class="cls-1" points="29.34 39.72 35.19 39.72 35.19 32.75 32.37 34.52 29.34 33.3 29.34 39.72"/><polygon class="cls-1" points="38.94 31.92 38.94 39.72 44.78 39.72 44.78 31.97 42.29 29.52 38.94 31.92"/><path class="cls-1" d="M32.55,30.66a7.63,7.63,0,0,1,0-15.25.75.75,0,1,1,0,1.49,6.13,6.13,0,1,0,4.91,9.81.74.74,0,0,1,1-.15.75.75,0,0,1,.15,1.05,7.57,7.57,0,0,1-6.1,3.05Z"/><path class="cls-1" d="M39.13,25.57a.76.76,0,0,1-.72-.94,6.16,6.16,0,0,0,.21-1.6,6.09,6.09,0,0,0-3.83-5.68A.75.75,0,0,1,35.36,16,7.61,7.61,0,0,1,40.12,23a7.33,7.33,0,0,1-.27,2,.74.74,0,0,1-.72.56Z"/><path class="cls-1" d="M35.42,24.62H32.5a.75.75,0,0,1-.75-.74V19.79a.75.75,0,0,1,1.5,0v3.34h2.17a.75.75,0,0,1,0,1.49Z"/></svg>