<svg id="图层_1" data-name="图层 1" xmlns="http://www.w3.org/2000/svg" viewBox="0 0 56.69 56.69"><defs><style>.cls-1{fill:#50b8db;}.cls-2{fill:#fff;}</style></defs><title>SVG图标</title><path class="cls-1" d="M27.27,40.12a10,10,0,0,1-.93-4.1,9,9,0,0,1,8.76-9.27,6.31,6.31,0,0,1,1,.05V22.66h-3A5.48,5.48,0,0,1,27.8,17V15H18.07a2.51,2.51,0,0,0-2.42,2.56v20a2.52,2.52,0,0,0,2.42,2.56h9.2"/><path class="cls-2" d="M25.24,30.42h-6.7a.48.48,0,0,1-.44-.48v-.49a.45.45,0,0,1,.44-.48h6.7a.48.48,0,0,1,.44.48v.49c-.05.26-.22.48-.44.48Z"/><path class="cls-2" d="M27.83,23.8H18.59a.49.49,0,0,1-.49-.48v-.49a.49.49,0,0,1,.49-.48h9.24a.49.49,0,0,1,.49.48v.49a.49.49,0,0,1-.49.48Z"/><path class="cls-1" d="M35.11,20.32H30.75a1,1,0,0,1-1-1V16a1,1,0,0,1,1-1l5.32,4.36a1,1,0,0,1-1,1Z"/><path class="cls-1" d="M36.07,40.16a5.81,5.81,0,1,0-5.79-5.81,5.81,5.81,0,0,0,5.79,5.81"/><path class="cls-2" d="M38.28,36.35H34.69a.4.4,0,0,1-.4-.4v-3.2a.4.4,0,0,1,.4-.4h.4a.41.41,0,0,1,.4.4v2.4h2.79a.4.4,0,0,1,.4.4V36a.4.4,0,0,1-.4.4Z"/></svg>