<svg id="图层_1" data-name="图层 1" xmlns="http://www.w3.org/2000/svg" viewBox="0 0 56.69 56.69"><defs><style>.cls-1{fill:#f0ad64;}</style></defs><title>SVG图标</title><path class="cls-1" d="M39.06,32H31.81a.33.33,0,0,0-.34.3v4.47a.32.32,0,0,0,.34.3h7.25a.32.32,0,0,0,.34-.3V32.28a.32.32,0,0,0-.34-.3Zm-1.35,4H33.17a.52.52,0,1,1,0-1h4.54a.52.52,0,1,1,0,1Zm0-1.89H33.17a.52.52,0,1,1,0-1h4.54a.52.52,0,1,1,0,1Zm0,0"/><path class="cls-1" d="M39.34,29.74h-11a.17.17,0,0,0-.1,0,.09.09,0,0,0,0,.07v7a.13.13,0,0,1,0,.07l-.09,0H17.44a.12.12,0,0,1-.13-.09c0-.22-.06-.43-.07-.65C16.88,30.58,23,25.88,30.36,26.13a14.17,14.17,0,0,1,9.08,3.45c.07.06,0,.16-.1.16Zm0,0"/><circle class="cls-1" cx="29.07" cy="19.28" r="4.95"/></svg>