<svg id="图层_1" data-name="图层 1" xmlns="http://www.w3.org/2000/svg" viewBox="0 0 56.69 56.69"><defs><style>.cls-1{fill:#f0ad64;}.cls-2{fill:#fff;}</style></defs><title>SVG图标</title><path class="cls-1" d="M25.81,21.09a5.91,5.91,0,1,0,5.91-5.9,5.91,5.91,0,0,0-5.91,5.9Zm0,0"/><path class="cls-2" d="M36.41,21.73a19.45,19.45,0,0,1-2.5-2.27l1,.1c-.45.51-.93,1-1.4,1.45s-1,.92-1.48,1.36l-.66.58-.57-.62c-.42-.46-.86-.89-1.26-1.37s-.81-.94-1.18-1.44l1-.09c-.35.41-.73.8-1.12,1.19A16.42,16.42,0,0,1,27,21.73L27,21.67,28.78,19l0-.08.06.07,2.62,2.63h-.13l3-2.64.07,0,0,.06,2,2.67Z"/><path class="cls-1" d="M44.15,36.08l-2.48,1.84a.37.37,0,0,1-.38,0,.32.32,0,0,1-.21-.3v-.53H38.73a.4.4,0,0,1-.26-.1.32.32,0,0,1-.11-.24v-.17l-1.52,1.14,1.52,1.14v-.16a.36.36,0,0,1,.37-.34H40.4a.34.34,0,1,1,0,.68H39.09v.53a.32.32,0,0,1-.21.3.26.26,0,0,1-.15,0,.4.4,0,0,1-.23-.08L36,38a.33.33,0,0,1-.14-.27A.31.31,0,0,1,36,37.5l2.47-1.84a.39.39,0,0,1,.39,0,.35.35,0,0,1,.2.31v.53h2.36a.35.35,0,0,1,.36.34V37l1.53-1.13-1.53-1.14v.16a.35.35,0,0,1-.36.34H39.86a.34.34,0,1,1,0-.68h1.22V34a.32.32,0,0,1,.21-.3.37.37,0,0,1,.38,0l2.48,1.84a.34.34,0,0,1,.13.27.33.33,0,0,1-.13.26Zm0,0"/><path class="cls-1" d="M34.84,38a5.36,5.36,0,0,1,5.37-5.36,5.15,5.15,0,0,1,1,.09c-.54-2.09-2-5.13-4.43-6.21a7.8,7.8,0,0,1-10.06,0,9.26,9.26,0,0,0-4.7,3.7,25.21,25.21,0,0,0-2.9,8.27A1.25,1.25,0,0,0,20.35,40l14.79-.16A5.43,5.43,0,0,1,34.84,38Z"/></svg>