<svg id="图层_1" data-name="图层 1" xmlns="http://www.w3.org/2000/svg" viewBox="0 0 56.69 56.69"><defs><style>.cls-1{fill:#ec8287;}.cls-2{fill:#fff;}</style></defs><title>SVG图标</title><rect class="cls-1" x="17.27" y="15.5" width="23.52" height="24.14" rx="3.76"/><path class="cls-2" d="M21.71,30.25c-.33,0-.6.4-.6.88s.27.89.6.89H37.12c.33,0,.6-.4.6-.89s-.27-.88-.6-.88Z"/><path class="cls-2" d="M21.71,33.06c-.33,0-.6.39-.6.88s.27.88.6.88H37.12c.33,0,.6-.39.6-.88s-.27-.88-.6-.88Z"/><path class="cls-2" d="M21.71,35.87c-.33,0-.6.39-.6.88s.27.88.6.88H37.12c.33,0,.6-.4.6-.88s-.27-.88-.6-.88Z"/><path class="cls-2" d="M29.7,19.08A3.9,3.9,0,1,0,33.6,23a3.91,3.91,0,0,0-3.9-3.9Zm2.05,4.3H29.7a.4.4,0,0,1-.41-.4v-2.5a.41.41,0,0,1,.81,0v2.09h1.65a.41.41,0,0,1,.4.41.4.4,0,0,1-.4.4Zm0,0"/><path class="cls-2" d="M29.7,17.51A5.47,5.47,0,1,0,35.16,23a5.47,5.47,0,0,0-5.46-5.47Zm0,10.09A4.63,4.63,0,1,1,34.32,23,4.62,4.62,0,0,1,29.7,27.6Zm0,0"/></svg>