<svg id="图层_1" data-name="图层 1" xmlns="http://www.w3.org/2000/svg" viewBox="0 0 56.69 56.69"><defs><style>.cls-1{fill:#72c8df;}</style></defs><title>SVG图标</title><path class="cls-1" d="M18,18.54h20.7a.9.9,0,0,1,.89.91V38.56a.91.91,0,0,1-.89.92H18a.9.9,0,0,1-.88-.92V19.45A.89.89,0,0,1,18,18.54Zm4.92,5.93H33.7a.91.91,0,0,0,.89-.92v-.08a.91.91,0,0,0-.89-.92H22.9a.91.91,0,0,0-.89.92v.08A.91.91,0,0,0,22.9,24.47Zm0,4.92H33.7a.91.91,0,0,0,.89-.92v-.09a.9.9,0,0,0-.89-.91H22.9a.9.9,0,0,0-.89.91v.09A.91.91,0,0,0,22.9,29.39Zm0,5.52h6.38a.91.91,0,0,0,.89-.92v-.08a.91.91,0,0,0-.89-.92H22.94a.9.9,0,0,0-.88.92V34A.9.9,0,0,0,22.94,34.91Zm-.88,0"/><path class="cls-1" d="M21.88,15.66A.94.94,0,0,1,23,16.72V19.4a.94.94,0,0,1-1.07,1.06.94.94,0,0,1-1.07-1.06V16.72a.94.94,0,0,1,1.07-1.06Zm6.37,0a.94.94,0,0,1,1.07,1.06V19.4a1.07,1.07,0,0,1-2.13,0V16.72a.93.93,0,0,1,1.06-1.06Zm6.37,0a.94.94,0,0,1,1.07,1.06V19.4a1.07,1.07,0,0,1-2.13,0V16.72a.93.93,0,0,1,1.06-1.06Zm0,0"/></svg>