<svg id="图层_1" data-name="图层 1" xmlns="http://www.w3.org/2000/svg" viewBox="0 0 56.69 56.69"><defs><style>.cls-1{fill:#d3acd0;}</style></defs><title>SVG图标</title><path class="cls-1" d="M19.16,27a6.5,6.5,0,0,0,2.14.33,5.78,5.78,0,0,0,3.45-1,6.14,6.14,0,0,0,3.41,1,5.66,5.66,0,0,0,3.41-1h0a5.76,5.76,0,0,0,3.45,1A6.87,6.87,0,0,0,37.19,27c1.46-.5,2.36-1.45,2.36-2.48a2.49,2.49,0,0,0-.26-.87c0-.05,0-.07,0-.12l-1.91-3a2.68,2.68,0,0,0-2.4-1H21.45a2.54,2.54,0,0,0-2.33,1L17,23.58s0,.05,0,.07a1.84,1.84,0,0,0-.22.87c0,1.06.89,2,2.39,2.51Z"/><path class="cls-1" d="M39.32,29.42a6.61,6.61,0,0,1-3.15.77h0a6.38,6.38,0,0,1-3.93-1.35.14.14,0,0,0-.17,0,6.26,6.26,0,0,1-3.9,1.35h0a6.7,6.7,0,0,1-3.85-1.37.12.12,0,0,0-.16,0,6.43,6.43,0,0,1-4,1.37A6.2,6.2,0,0,1,17,29.4l-.05,0a.12.12,0,0,0-.13,0,.11.11,0,0,0-.06.11v6.68a2.91,2.91,0,0,0,3,2.83H36.57a2.91,2.91,0,0,0,3-2.83V29.5a.11.11,0,0,0-.06-.1.12.12,0,0,0-.13,0l0,0Z"/><rect class="cls-1" x="19.93" y="16.84" width="16.24" height="1.95" rx="0.98"/></svg>