<svg id="图层_1" data-name="图层 1" xmlns="http://www.w3.org/2000/svg" viewBox="0 0 56.69 56.69"><defs><style>.cls-1{fill:#f0ad64;}.cls-2{fill:#fff;}</style></defs><title>SVG图标</title><path class="cls-1" d="M31.5,39.34,43.19,29a4,4,0,0,0,.35-5.62l-2-2.27h0l-5,4.45a3.14,3.14,0,0,1,.13,1.15,3.19,3.19,0,1,1-3-3.38,3.08,3.08,0,0,1,1.13.28l5-4.45h0l-2.07-2.33a4,4,0,0,0-5.63-.35L20.42,26.82a4,4,0,0,0-.35,5.62L25.87,39A4,4,0,0,0,31.5,39.34Z"/><path class="cls-2" d="M26.45,30.51a1.75,1.75,0,0,1,0-.81,1.49,1.49,0,0,1,.48-.79,1.59,1.59,0,0,1,1.52-.34,2.82,2.82,0,0,1,1.37.92,3.14,3.14,0,0,1,.94,1.77,1.58,1.58,0,0,1-.51,1.32,1.49,1.49,0,0,1-.78.37,1.94,1.94,0,0,1-.81-.06,1.85,1.85,0,0,1,0,1,1.73,1.73,0,0,1-.51.82,1.88,1.88,0,0,1-.84.46,1.81,1.81,0,0,1-.86,0,2.16,2.16,0,0,1-.8-.38,4.27,4.27,0,0,1-.79-.7A3.89,3.89,0,0,1,24,32.82a1.76,1.76,0,0,1,0-1.11,2,2,0,0,1,.6-.93,1.69,1.69,0,0,1,.91-.46,1.65,1.65,0,0,1,1,.19ZM28,30.25a.73.73,0,0,0-.26.53.79.79,0,0,0,.23.56.7.7,0,0,0,.49.24.73.73,0,0,0,.54-.21.77.77,0,0,0,.26-.53.7.7,0,0,0-.2-.54A.75.75,0,0,0,28.5,30a.71.71,0,0,0-.54.21ZM25.8,32.08a1,1,0,0,0-.35.67.87.87,0,0,0,.21.64.77.77,0,0,0,.6.24,1,1,0,0,0,.7-.28,1,1,0,0,0,.35-.68.82.82,0,0,0-.2-.63.76.76,0,0,0-.6-.26,1,1,0,0,0-.71.3Zm0,0"/></svg>