<svg id="图层_1" data-name="图层 1" xmlns="http://www.w3.org/2000/svg" viewBox="0 0 56.69 56.69"><defs><style>.cls-1{fill:#50b8db;}.cls-2{fill:#fff;}</style></defs><title>SVG图标</title><path class="cls-1" d="M17.68,27.34l-1,.92a1.39,1.39,0,0,0,0,2l9.13,8.62a1.57,1.57,0,0,0,2.14,0l.68-.63Z"/><path class="cls-1" d="M40.42,25.78V18.23a1.79,1.79,0,0,0-1.83-1.73H30.44a2.58,2.58,0,0,0-1.79.47L18.44,26.62l11,10.93,10.5-9.92a2.32,2.32,0,0,0,.5-1.85Z"/><path class="cls-2" d="M33.7,24.63a1.94,1.94,0,1,1,2-1.93,2,2,0,0,1-2,1.93Z"/></svg>