<svg id="图层_1" data-name="图层 1" xmlns="http://www.w3.org/2000/svg" viewBox="0 0 56.69 56.69"><defs><style>.cls-1{fill:#50b8db;}</style></defs><title>SVG图标</title><path class="cls-1" d="M30.54,38H28.29L28,37.48H22l-.26.53H19.46a.82.82,0,0,0,0,1.63H30.54a.82.82,0,0,0,0-1.63Zm4.55-21.82H14.9a1.78,1.78,0,0,0-2,1.92V32.26a1.79,1.79,0,0,0,2,1.92H35.09a1.79,1.79,0,0,0,2-1.93V18.11a1.79,1.79,0,0,0-2-1.92Zm-3.48,6.48L25,29.7a1.11,1.11,0,0,1-.66.23,1.46,1.46,0,0,1-.66-.23l-3.94-4.22a1.13,1.13,0,0,1,0-1.41,1,1,0,0,1,1.31,0l3.29,3.52,5.91-6.33a1,1,0,0,1,1.32,0,.92.92,0,0,1,0,1.41Zm0,1.29"/></svg>