<svg id="图层_1" data-name="图层 1" xmlns="http://www.w3.org/2000/svg" viewBox="0 0 56.69 56.69"><defs><style>.cls-1{fill:#45a985;}.cls-2{fill:#fff;}</style></defs><title>SVG图标</title><path class="cls-1" d="M23.78,39.61s1.47-1.83,1.66-2.1.08-1.15.08-1.15c-6.12-.61-10.77-5-10.77-10.18C14.63,20.54,20.26,16,27.11,16S39.59,20.53,39.59,26.3a9.35,9.35,0,0,1-3.06,6.75,38.12,38.12,0,0,1-9.66,6.63,1.23,1.23,0,0,1-.49.12A9.15,9.15,0,0,1,23.78,39.61Z"/><rect class="cls-2" x="20.16" y="22.33" width="15.2" height="2.96" rx="1.47"/><rect class="cls-2" x="24.8" y="28.1" width="10.56" height="2.61" rx="1.31"/><rect class="cls-2" x="20.74" y="27.93" width="2.61" height="2.61" rx="1.31"/></svg>