<svg id="图层_1" data-name="图层 1" xmlns="http://www.w3.org/2000/svg" viewBox="0 0 56.69 56.69"><defs><style>.cls-1{fill:#ec8287;}</style></defs><title>SVG图标</title><path class="cls-1" d="M30.63,29A7.79,7.79,0,0,0,35,22.07a6.73,6.73,0,0,0-2.19-4.84,7.06,7.06,0,0,0-5.1-1.82,7,7,0,0,0-5.12,1.81,6.66,6.66,0,0,0-2.19,4.85A7.8,7.8,0,0,0,24.85,29a8.93,8.93,0,0,0-6.27,8.48H36.89A8.92,8.92,0,0,0,30.63,29Zm-3-2.28A1.8,1.8,0,0,1,25.85,25h3.68a1.93,1.93,0,0,1-1.86,1.72Zm0,0"/><path class="cls-1" d="M36.45,29a5.92,5.92,0,0,0,3.27-5.19,5.07,5.07,0,0,0-4.93-4.92,6.92,6.92,0,0,1,.71,3.19A8.7,8.7,0,0,1,32.05,29a9.93,9.93,0,0,1,5.06,6.36h4A6.69,6.69,0,0,0,36.45,29Zm0,0"/></svg>