<svg id="图层_1" data-name="图层 1" xmlns="http://www.w3.org/2000/svg" viewBox="0 0 56.69 56.69"><defs><style>.cls-1{fill:#50b8db;}.cls-2{fill:#fff;}</style></defs><title>SVG图标</title><path class="cls-1" d="M39.78,37.11H19c-1.34,0-2.44-1.37-2.44-3V18.8c0-1.68,1.1-3.05,2.44-3.05H39.78c1.35,0,2.45,1.37,2.45,3.05V34.06c0,1.68-1.1,3-2.45,3Zm0,0"/><path class="cls-2" d="M39.2,22.74H20.27a1.17,1.17,0,0,1,0-2.29H39.2a1.18,1.18,0,0,1,0,2.29Zm0,0"/><path class="cls-2" d="M39,32.55H35.94a1.17,1.17,0,0,1,0-2.29H39a1.17,1.17,0,0,1,0,2.29Zm-6.1,0H29.83a1.18,1.18,0,0,1,0-2.29h3.06a1.18,1.18,0,0,1,0,2.29Zm0,0"/></svg>