<svg id="图层_1" data-name="图层 1" xmlns="http://www.w3.org/2000/svg" viewBox="0 0 56.69 56.69"><defs><style>.cls-1{fill:#45a985;}.cls-2{fill:#fff;}</style></defs><title>SVG图标</title><path class="cls-1" d="M38.9,14c-.41.1-1.47,1.31-1.86,1.31S35.15,14,34.8,14s-1.87,1.25-2.24,1.24S30.78,14,30.3,14s-1.76,1.25-2.21,1.24S26.21,14,25.84,14s-1.69,1.25-2.22,1.24S22,14,21.44,14s-1.64,1.25-2.21,1.24S18,14,17.6,14c-.17-.09-.56.23-.56.53V35.14a.55.55,0,0,0,.56.53H38.9a.55.55,0,0,0,.56-.53V14.49A.52.52,0,0,0,38.9,14Z"/><path class="cls-2" d="M31.88,26.16a.63.63,0,1,1,0,1.26H28.81V30a.65.65,0,0,1-1.3,0V27.42H24.44a.63.63,0,1,1,0-1.26h3.07V24.58H24.44a.63.63,0,1,1,0-1.25h2.82L25,21.18a.61.61,0,0,1,0-.89.68.68,0,0,1,.92,0l2.22,2.12,2.22-2.12a.68.68,0,0,1,.92,0,.61.61,0,0,1,0,.89l-2.24,2.15h2.82a.63.63,0,1,1,0,1.25H28.81v1.58Z"/></svg>