<svg id="图层_1" data-name="图层 1" xmlns="http://www.w3.org/2000/svg" viewBox="0 0 56.69 56.69"><defs><style>.cls-1{fill:#f0ad64;}</style></defs><title>SVG图标</title><path class="cls-1" d="M17,27.6a1.19,1.19,0,0,1-.15-2l8.11-7.24A2,2,0,0,1,26.27,18a1.91,1.91,0,0,1,1.31.49A20.75,20.75,0,0,0,30,19.81c.91,0,3.92-3.54,3.92-3.54l-3-2,8.42-2.42-1.05,7.35L35.9,17.53s-4.29,6.2-6.19,5.55a22.83,22.83,0,0,1-3.54-2.4l-7.72,6.8C18,27.89,17.68,27.94,17,27.6Z"/><path class="cls-1" d="M35.73,26.56,34,28.36v9.45h6.89l0-7.82c-1.41-1-5.17-3.43-5.17-3.43Z"/><path class="cls-1" d="M29.91,33a4,4,0,0,1-2,.89c-1,.14-2.54-.76-3.33-1.23v5.09h8.17l.15-7.65a33.12,33.12,0,0,1-3,2.9Z"/><polygon class="cls-1" points="22.52 37.72 22.52 30.76 15.64 37.37 15.64 37.72 22.52 37.72"/></svg>