<svg id="图层_1" data-name="图层 1" xmlns="http://www.w3.org/2000/svg" viewBox="0 0 56.69 56.69"><defs><style>.cls-1{fill:#ec8287;}</style></defs><title>SVG图标</title><path class="cls-1" d="M28.12,27a7.35,7.35,0,1,0-7.35-7.35A7.35,7.35,0,0,0,28.12,27Zm-1.67-2.73H24.4a.82.82,0,0,1-.82-.82V21.37h.82v2.05h2.05Zm6.33-.82a.82.82,0,0,1-.82.82H29.91v-.82H32V21.37h.82ZM29.91,15H32a.82.82,0,0,1,.82.82v2.05H32V15.86H29.91Zm-6.33.82A.82.82,0,0,1,24.4,15h2.05v.82H24.4v2.05h-.82Zm.35,3.35h8.38a.41.41,0,0,1,.41.41.41.41,0,0,1-.41.41H23.93a.41.41,0,0,1-.41-.41.41.41,0,0,1,.41-.41Zm0,0"/><path class="cls-1" d="M39.85,34.58V23H37.3V34.58H33.39V28.7a8.26,8.26,0,0,1-2.56,1.42v4.46H26.92V30.4a8,8,0,0,1-2.55-.92v5.1H20.46V29.76H17.91v4.82h-2v2.76H41.75V34.58Zm0,0"/></svg>