<svg id="图层_1" data-name="图层 1" xmlns="http://www.w3.org/2000/svg" viewBox="0 0 56.69 56.69"><defs><style>.cls-1{fill:#50b8db;}</style></defs><title>SVG图标</title><path class="cls-1" d="M39.81,34.42H37.87V22.09h-2.6V34.42h-4V28.15a8.28,8.28,0,0,1-2.6,1.51v4.76h-4V30a7.94,7.94,0,0,1-2.6-1v5.44h-4V29.27h-2.6v5.15h-2v2.95H39.81Zm0,0"/><path class="cls-1" d="M19.42,19.47a7.22,7.22,0,1,0,7.22-7.22,7.22,7.22,0,0,0-7.22,7.22Zm8.78-1.83,2.9.52-2,2.13.4,2.92-2.65-1.28-2.65,1.28.4-2.92-2-2.13,2.9-.52L26.81,15Zm.23-.15"/></svg>