<svg id="图层_1" data-name="图层 1" xmlns="http://www.w3.org/2000/svg" viewBox="0 0 56.69 56.69"><defs><style>.cls-1{fill:#d3acd0;}.cls-2{fill:#fff;}</style></defs><title>SVG图标</title><rect class="cls-1" x="19.08" y="13.62" width="23.52" height="24.14" rx="3.76"/><path class="cls-2" d="M23.52,28.38c-.32,0-.59.39-.59.88s.27.88.59.88H38.94c.33,0,.59-.4.59-.88s-.26-.88-.59-.88Z"/><path class="cls-2" d="M23.52,31.18c-.32,0-.59.4-.59.88s.27.88.59.88H38.94c.33,0,.59-.39.59-.88s-.26-.88-.59-.88Z"/><path class="cls-2" d="M23.52,34c-.32,0-.59.39-.59.88s.27.88.59.88H38.94c.33,0,.59-.4.59-.88s-.26-.88-.59-.88Z"/><path class="cls-2" d="M24,25.35l2.5-2.1,4.8,2.92L37,20.82a.18.18,0,0,0,0-.07l1,1,1.54-4.34-4.42,1.43,1.06,1.07,0,0-5,4.7-4.74-2.88L23.18,24.4a.61.61,0,0,0-.08.87.62.62,0,0,0,.88.08Z"/></svg>