<svg id="图层_1" data-name="图层 1" xmlns="http://www.w3.org/2000/svg" viewBox="0 0 56.69 56.69"><defs><style>.cls-1{fill:#45a985;}</style></defs><title>SVG图标</title><path class="cls-1" d="M28.45,25a6,6,0,1,0-6-6,6,6,0,0,0,6,6Zm0,0"/><path class="cls-1" d="M41.31,34.14H34.22a.66.66,0,0,1-.71-.61.59.59,0,0,1,.23-.46l2.83-2.45a.72.72,0,0,1,1,0,.53.53,0,0,1,0,.83l-1.68,1.47h5.47a.62.62,0,1,1,0,1.22Zm-7.1.53h7.11a.65.65,0,0,1,.7.6h0s0,0,0,0a.53.53,0,0,1-.18.39h0L39,38.2a.74.74,0,0,1-.95,0,.55.55,0,0,1,0-.84l1.7-1.47H34.21a.66.66,0,0,1-.61-.61.65.65,0,0,1,.61-.61Zm0,0"/><path class="cls-1" d="M28.93,34.16a5.31,5.31,0,0,1,5.5-5.07h.21a11.67,11.67,0,0,0-7.78-2.93c-6.23,0-11.32,4.82-11.32,10.68,0,.46,0,1.53,1.62,1.53H31.4a5,5,0,0,1-2.47-4.22Zm0,0"/></svg>