<svg id="图层_1" data-name="图层 1" xmlns="http://www.w3.org/2000/svg" viewBox="0 0 56.69 56.69"><defs><style>.cls-1{fill:#ec8287;}</style></defs><title>SVG图标</title><path class="cls-1" d="M29,13.77a5.38,5.38,0,1,0,5.38,5.38A5.38,5.38,0,0,0,29,13.77Z"/><path class="cls-1" d="M31.35,37.6a1,1,0,0,1-1-1v-8a1,1,0,0,1,2,0v8a1,1,0,0,1-1,1Z"/><path class="cls-1" d="M35.35,37.6a1.1,1.1,0,0,1-1-1.18V26.83a1,1,0,1,1,2,0v9.59a1.08,1.08,0,0,1-1,1.18Z"/><path class="cls-1" d="M39.33,37.6a1,1,0,0,1-1-1v-12a1,1,0,1,1,2,0v12a1,1,0,0,1-1,1Z"/><path class="cls-1" d="M18.37,30.29c-.21.11-.4.24-.59.35a3,3,0,0,0-1.41,2.54V36.6a1,1,0,0,0,1,1h10a1,1,0,0,0,1-1v-8a1,1,0,0,0-1-1,19.74,19.74,0,0,0-8.91,2.63Z"/></svg>