<svg id="图层_1" data-name="图层 1" xmlns="http://www.w3.org/2000/svg" viewBox="0 0 56.69 56.69"><defs><style>.cls-1{fill:#50b8db;}</style></defs><title>SVG图标</title><path class="cls-1" d="M41.81,37.92l-2.32-1.43a4.14,4.14,0,0,0-2.27-.64h0a4,4,0,0,0-2.29.68l-1.35.95a1.41,1.41,0,0,1-.75.22,1.39,1.39,0,0,1-.74-.21l-1.4-1a3.94,3.94,0,0,0-2.29-.66h0a4,4,0,0,0-2.29.66l-1.45,1a1.38,1.38,0,0,1-1.49,0l-1.45-1a4,4,0,0,0-2.3-.66,4.07,4.07,0,0,0-2.28.65l-2.28,1.43A.63.63,0,0,0,14.75,39a1.45,1.45,0,0,0,1.54.07l2.29-1.43.05,0a1.43,1.43,0,0,1,1.49,0l1.45,1a4.32,4.32,0,0,0,4.59,0l1.46-1a1.43,1.43,0,0,1,1.49,0l1.4,1a4.06,4.06,0,0,0,2.31.67h0a4,4,0,0,0,2.31-.68l1.35-1a1.45,1.45,0,0,1,1.49,0l.05,0,2.35,1.44a1.37,1.37,0,0,0,.81.19A1.29,1.29,0,0,0,42,39a.63.63,0,0,0,.27-.57.91.91,0,0,0-.41-.53Z"/><path class="cls-1" d="M23.1,17.48a5.46,5.46,0,1,1,5.46,5.39,5.43,5.43,0,0,1-5.46-5.39Z"/><path class="cls-1" d="M31.05,23.41l-2.49,1.91-2.5-1.91a12,12,0,0,0-9.44,11.81H40.49a12,12,0,0,0-9.44-11.81ZM28.56,34.23l-2.06-2,2.06-6.06,2.05,6.06Zm0,0"/></svg>