<svg id="图层_1" data-name="图层 1" xmlns="http://www.w3.org/2000/svg" viewBox="0 0 56.69 56.69"><defs><style>.cls-1{fill:#39b69b;}.cls-2{fill:#fff;}</style></defs><title>SVG图标</title><path class="cls-1" d="M27.5,36.84a10.73,10.73,0,0,0,1.76,2.47h-11V36.84Z"/><path class="cls-1" d="M27,34.27H18.22v-4c0-1.85,2.39-3.45,5.41-3.45H28a9,9,0,0,0-1.39,4.81A9.33,9.33,0,0,0,27,34.27Z"/><ellipse class="cls-1" cx="26.88" cy="20.03" rx="5.13" ry="5.02"/><path class="cls-1" d="M35.55,39.32a7.52,7.52,0,1,1,7.67-7.52,7.55,7.55,0,0,1-7.67,7.52Z"/><path class="cls-2" d="M34.37,30.57H31.86a1.23,1.23,0,1,0,0,2.46h2.51V35.5a1.26,1.26,0,0,0,2.52,0V33h2.52a1.23,1.23,0,1,0,0-2.46H36.89V28.1a1.26,1.26,0,0,0-2.52,0Z"/></svg>