<svg id="图层_1" data-name="图层 1" xmlns="http://www.w3.org/2000/svg" viewBox="0 0 56.69 56.69"><defs><style>.cls-1{fill:#50b8db;}</style></defs><title>SVG图标</title><path class="cls-1" d="M20,26.66h8.5v4.92a.53.53,0,0,0,1.06,0V26.66h8.5V32.1a.53.53,0,0,0,1.06,0V26.48a.86.86,0,0,0-.87-.84H29.59V23.41a.53.53,0,0,0-1.06,0v2.23H19.85a.86.86,0,0,0-.88.84V32.1a.52.52,0,0,0,.53.51A.52.52,0,0,0,20,32.1Zm2.13,6.77H16.85a.52.52,0,0,0-.53.51v5a.52.52,0,0,0,.53.51h5.31a.52.52,0,0,0,.53-.51v-5a.52.52,0,0,0-.53-.51Zm9.56,0H26.41a.52.52,0,0,0-.53.51v5a.51.51,0,0,0,.53.51h5.31a.52.52,0,0,0,.53-.51v-5a.52.52,0,0,0-.53-.51Zm9.55,0H36a.52.52,0,0,0-.53.51v5a.52.52,0,0,0,.53.51h5.31a.51.51,0,0,0,.53-.51v-5a.52.52,0,0,0-.53-.51ZM24.81,22.06h8.5a.52.52,0,0,0,.53-.51V15.44a.52.52,0,0,0-.53-.52h-8.5a.52.52,0,0,0-.53.52v6.11a.52.52,0,0,0,.53.51Zm0,0"/></svg>