<svg id="图层_1" data-name="图层 1" xmlns="http://www.w3.org/2000/svg" viewBox="0 0 56.69 56.69"><defs><style>.cls-1{fill:#d3acd0;}.cls-2{fill:#fff;}</style></defs><title>SVG图标</title><path class="cls-1" d="M38.48,22.71H33.16l-3.49-4a1.66,1.66,0,0,0,.45-1.19,3.11,3.11,0,0,0-.6-1.63,3.24,3.24,0,0,0-1.68-.59,3.23,3.23,0,0,0-1.67.59,3.11,3.11,0,0,0-.6,1.63A2.37,2.37,0,0,0,26,18.85l-3.34,3.86H17.21a1.42,1.42,0,0,0-1.52,1.49V37.56A1.42,1.42,0,0,0,17.21,39H38.48A1.42,1.42,0,0,0,40,37.56V24.2A1.42,1.42,0,0,0,38.48,22.71Zm-14.74,0,2.89-3.41a1.77,1.77,0,0,0,1.21.44,2.52,2.52,0,0,0,1.37-.44l3,3.41Z"/><path class="cls-2" d="M19.39,29.84H30.22a.72.72,0,0,1,.66.77v.24a.72.72,0,0,1-.66.77H19.39a.72.72,0,0,1-.66-.77v-.24A.72.72,0,0,1,19.39,29.84Z"/><path class="cls-2" d="M33.23,36.07H19.42a.82.82,0,0,1-.69-.9V35a.83.83,0,0,1,.69-.91H33.23a.83.83,0,0,1,.69.91v.19A.82.82,0,0,1,33.23,36.07Z"/><path class="cls-2" d="M36.25,27.7H19.44a.85.85,0,0,1-.71-.94v-.14a.85.85,0,0,1,.71-.94H36.25a.85.85,0,0,1,.71.94v.14A.85.85,0,0,1,36.25,27.7Z"/></svg>