<svg id="图层_1" data-name="图层 1" xmlns="http://www.w3.org/2000/svg" viewBox="0 0 56.69 56.69"><defs><style>.cls-1{fill:#45a985;}.cls-2{fill:#fff;}</style></defs><title>SVG图标</title><path class="cls-1" d="M28.49,34.49c0-5.09,5.07-9.16,11-8.84l.29,0a1.55,1.55,0,0,0,1.76-1.4V18.14a2,2,0,0,0-2.18-1.88H19.25a2,2,0,0,0-2.16,1.88V37.81a2,2,0,0,0,2.16,1.88H28A1.27,1.27,0,0,0,29.28,38a8,8,0,0,1-.79-3.46ZM22.5,20H36a1.05,1.05,0,0,1,1.13.92,1,1,0,0,1-1.08,1H22.55A1.05,1.05,0,0,1,21.42,21a1,1,0,0,1,1.08-1Zm2.75,13.12h-2.7a1.06,1.06,0,0,1-1.13-.91,1,1,0,0,1,1.08-1h2.7a1.05,1.05,0,0,1,1.13.92,1,1,0,0,1-1.08,1Zm2.16-5.62H22.55a1.06,1.06,0,0,1-1.13-.92,1,1,0,0,1,1.08-1h4.87a1.06,1.06,0,0,1,1.13.92,1,1,0,0,1-1.09,1Zm0,0"/><path class="cls-1" d="M31.15,34.42a5.17,5.17,0,1,1,5.17,5.17,5.17,5.17,0,0,1-5.17-5.17Z"/><path class="cls-2" d="M39.54,33a.71.71,0,0,0,0-1,.66.66,0,0,0-1,0l-3.3,3.42-1.23-1.27a.67.67,0,0,0-1,0,.72.72,0,0,0,0,1l1.71,1.77a.67.67,0,0,0,1,0,.61.61,0,0,0,.1-.14l.14-.11Z"/></svg>