<svg id="图层_1" data-name="图层 1" xmlns="http://www.w3.org/2000/svg" viewBox="0 0 56.69 56.69"><defs><style>.cls-1{fill:#50b8db;}.cls-2{fill:#fff;}</style></defs><title>SVG图标</title><path class="cls-1" d="M37.27,18.18h1.16a2.48,2.48,0,0,1,2.41,2.54v17a2.47,2.47,0,0,1-2.41,2.53H18.26a2.47,2.47,0,0,1-2.41-2.53v-17a2.48,2.48,0,0,1,2.41-2.54h1.16v.88a2.38,2.38,0,1,0,4.76,0v-.88h8.33v.88a2.38,2.38,0,1,0,4.76,0Z"/><path class="cls-1" d="M21.8,20.63a1.22,1.22,0,0,1-1.19-1.24V16.92a1.19,1.19,0,1,1,2.38,0v2.47a1.22,1.22,0,0,1-1.19,1.24Z"/><path class="cls-1" d="M34.89,20.63a1.22,1.22,0,0,1-1.19-1.24V16.92a1.19,1.19,0,1,1,2.38,0v2.47a1.22,1.22,0,0,1-1.19,1.24Z"/><path class="cls-2" d="M33.9,27.23a1.08,1.08,0,0,0,0-1.48,1,1,0,0,0-1.42,0l-4.84,5.09-1.8-1.89a1,1,0,0,0-1.41,0,1.1,1.1,0,0,0,0,1.49l2.5,2.63a1,1,0,0,0,1.42,0,.8.8,0,0,0,.15-.21.74.74,0,0,0,.2-.16Z"/></svg>