<svg id="图层_1" data-name="图层 1" xmlns="http://www.w3.org/2000/svg" viewBox="0 0 56.69 56.69"><defs><style>.cls-1{fill:#d3acd0;}</style></defs><title>SVG图标</title><path class="cls-1" d="M15.43,38.07h7.44V28.52l-2-1.13-5.41,3.67Zm9.2,0h7.43V28.58L28.47,31l-3.84-1.67Zm9.19-10.62V38.07h7.44V27.52l-3.18-3.34Zm0,0"/><path class="cls-1" d="M16.87,26.91l3.65-3.05,7,4.25,8.29-7.8.08-.09,1.39,1.41,2.25-6.32-6.45,2.07,1.55,1.56-.07,0-7.27,6.85-6.91-4.21L15.7,25.52a.92.92,0,0,0-.11,1.28.9.9,0,0,0,1.28.11Z"/><path class="cls-1" d="M40.38,38.9h-24a.87.87,0,1,0,0,1.74h24a.87.87,0,1,0,0-1.74Z"/></svg>