<svg id="图层_1" data-name="图层 1" xmlns="http://www.w3.org/2000/svg" viewBox="0 0 56.69 56.69"><defs><style>.cls-1{fill:#f0ad64;}</style></defs><title>SVG图标</title><path class="cls-1" d="M38.22,20H34.91V18.63A3.07,3.07,0,0,0,32,15.42H24.69a3.08,3.08,0,0,0-2.91,3.21V20H18.47a3.07,3.07,0,0,0-2.91,3.2V37.32a3.08,3.08,0,0,0,2.91,3.21H38.22a3.07,3.07,0,0,0,2.91-3.21v-6.8H35.89v1.39a1.28,1.28,0,1,1-2.55,0V30.52h-10v1.39a1.29,1.29,0,1,1-2.56,0V30.52H15.56V28.63l5.24,0a1.28,1.28,0,1,1,2.55,0h10a1.28,1.28,0,1,1,2.55,0h5.24V23.24A3.07,3.07,0,0,0,38.22,20ZM23.51,18.63a1.25,1.25,0,0,1,1.18-1.3H32a1.25,1.25,0,0,1,1.18,1.3V20H23.51Zm0,0"/></svg>