<?xml version="1.0" standalone="no"?><!DOCTYPE svg PUBLIC "-//W3C//DTD SVG 1.1//EN" "http://www.w3.org/Graphics/SVG/1.1/DTD/svg11.dtd"><svg t="1564476110551" class="icon" viewBox="0 0 1367 1024" version="1.1" xmlns="http://www.w3.org/2000/svg" p-id="1389" xmlns:xlink="http://www.w3.org/1999/xlink" width="42.71875" height="32"><defs><style type="text/css"></style></defs><path d="M982.312023 719.837811l-128.417261-144.208392h95.874726c-5.456781-131.450499-112.900493-236.562123-245.692323-236.562123-62.49386 0-118.890758 24.006788-162.423066 62.341436l-52.9826-62.295709a326.187464 326.187464 0 0 1 215.420908-81.165806c177.619744 0 321.889106 141.388547 327.284917 317.66696h79.29099zM699.839776 903.905092c-177.574016-3.048481-319.450321-146.799601-321.828136-323.138983l-79.382444-1.356574 130.856045-141.983001 125.978476 146.327087-95.874726-1.615695c3.277117 131.480984 108.861255 238.391212 241.668329 240.708057 62.49386 1.021241 119.332788-22.010033 163.459549-59.58256l51.915631 63.210253a326.187464 326.187464 0 0 1-216.777481 77.431416z m553.954719-706.165374H1089.908159c-69.322457 0-84.519135-40.560039-119.988211-111.543919S880.370819 0 831.336003 0h-295.702654c-49.034816 0-103.114869 15.242405-138.583945 86.195799s-50.665754 111.543919-119.988211 111.543919H113.235826c-65.908159 0-113.220583 25.302392-113.220584 99.70057v599.803873c0 64.231494 23.686697 126.740596 114.897248 126.740597h1137.205341c91.225793 0 114.897248-62.49386 114.897248-126.740597V297.440288c0-74.398178-47.251455-99.70057-113.220584-99.70057z" fill="#333333" p-id="1390"></path></svg>