<?xml version="1.0" standalone="no"?><!DOCTYPE svg PUBLIC "-//W3C//DTD SVG 1.1//EN" "http://www.w3.org/Graphics/SVG/1.1/DTD/svg11.dtd"><svg t="1565835464299" class="icon" viewBox="0 0 1024 1024" version="1.1" xmlns="http://www.w3.org/2000/svg" p-id="1953" width="48" height="48" xmlns:xlink="http://www.w3.org/1999/xlink"><defs><style type="text/css"></style></defs><path d="M304 816.5h-96V720a8 8 0 0 0-8-8h-80a8 8 0 0 0-8 8v160.5a32 32 0 0 0 32 32h160a8 8 0 0 0 8-8v-80a8 8 0 0 0-8-8zM120 312h80a8 8 0 0 0 8-8v-95.5h96a8 8 0 0 0 8-8v-80a8 8 0 0 0-8-8H144a32 32 0 0 0-32 32V304a8 8 0 0 0 8 8zM880 112.5H720a8 8 0 0 0-8 8v80a8 8 0 0 0 8 8h96V304a8 8 0 0 0 8 8h80a8 8 0 0 0 8-8V144.5a32 32 0 0 0-32-32zM904 712h-80a8 8 0 0 0-8 8v96.5h-96a8 8 0 0 0-8 8v80a8 8 0 0 0 8 8h160a32 32 0 0 0 32-32V720a8 8 0 0 0-8-8zM817.5 512.5C817.5 343.78 680.72 207 512 207S206.5 343.78 206.5 512.5 343.28 818 512 818s305.5-136.78 305.5-305.5z m-459.72-69a48 48 0 1 1 48 48 48 48 0 0 1-48-48z m274.44 219.37a192.6 192.6 0 0 1-240.44 0 8 8 0 0 1 5-14.25h230.43a8 8 0 0 1 5.01 14.25z m-14-171.37a48 48 0 1 1 48-48 48 48 0 0 1-48 48z" fill="#4d97e8" p-id="1954"></path></svg>