<?xml version="1.0" standalone="no"?><!DOCTYPE svg PUBLIC "-//W3C//DTD SVG 1.1//EN" "http://www.w3.org/Graphics/SVG/1.1/DTD/svg11.dtd"><svg t="1559101146650" class="icon" style="" viewBox="0 0 1024 1024" version="1.1" xmlns="http://www.w3.org/2000/svg" p-id="1985" xmlns:xlink="http://www.w3.org/1999/xlink" width="16" height="16"><defs><style type="text/css"></style></defs><path d="M825.3 792.9L605.1 572.8c-4.8-4.8-5.1-12.2-1.1-17.6 36.1-48.8 54.2-111.7 40.6-179.9-18.5-92.9-96.1-167.1-189.8-180.7-153-22.2-282.4 107.3-260.2 260.3 13.6 93.7 87.9 171.3 180.7 189.8 68.3 13.6 131.1-4.5 179.9-40.6 5.4-4 12.8-3.7 17.6 1.1l220.1 220.1c8.9 8.9 23.4 8.9 32.3 0 9-9 9-23.4 0.1-32.4zM420.6 603.4c-101 0-182.8-81.9-182.8-182.8 0-101 81.9-182.8 182.8-182.8s182.8 81.9 182.8 182.8c0 101-81.8 182.8-182.8 182.8z" fill="#999999" p-id="1986"></path></svg>