<?xml version="1.0" standalone="no"?><!DOCTYPE svg PUBLIC "-//W3C//DTD SVG 1.1//EN" "http://www.w3.org/Graphics/SVG/1.1/DTD/svg11.dtd"><svg t="1563420986025" class="icon" viewBox="0 0 1024 1024" version="1.1" xmlns="http://www.w3.org/2000/svg" p-id="1968" width="48" height="48" xmlns:xlink="http://www.w3.org/1999/xlink"><defs><style type="text/css"></style></defs><path d="M792 180.7H665.8v-31.5c0-16.6-13.4-30-30-30h-1.5c-16.6 0-30 13.4-30 30v31.5H419.7v-31.5c0-16.6-13.4-30-30-30h-1.5c-16.6 0-30 13.4-30 30v31.5H232c-66.3 0-120 53.7-120 120v498.4c0 66.3 53.7 120 120 120h560c66.3 0 120-53.7 120-120V300.7c0-66.3-53.7-120-120-120z m60 618.4c0 33.1-26.9 60-60 60H232c-33.1 0-60-26.9-60-60V426.8h680v372.3zM172 365.3v-64.6c0-33.1 26.9-60 60-60h126.2v33.1c0 16.6 13.4 30 30 30h1.5c16.6 0 30-13.4 30-30v-33.1h184.6v33.1c0 16.6 13.4 30 30 30h1.5c16.6 0 30-13.4 30-30v-33.1H792c33.1 0 60 26.9 60 60v64.6H172z" fill="#ff8d1a" p-id="1969"></path><path d="M467.5 753.7c5.9 5.9 13.5 8.8 21.2 8.8s15.4-2.9 21.2-8.8L685 578.6c11.7-11.7 11.7-30.7 0-42.4l-1.1-1.1c-11.7-11.7-30.7-11.7-42.4 0L488.7 687.9l-65.8-65.8c-11.7-11.7-30.7-11.7-42.4 0l-1.1 1.1c-11.7 11.7-11.7 30.7 0 42.4l88.1 88.1z" fill="#ff8d1a" p-id="1970"></path></svg>